<svg width="256" height="256" viewBox="0 0 256 256" fill="none" xmlns="http://www.w3.org/2000/svg">
  <rect width="256" height="256" rx="64" fill="url(#bg)"/>
  <rect x="18" y="18" width="220" height="220" rx="52" fill="url(#panel)" fill-opacity="0.92" stroke="url(#stroke)" stroke-width="2"/>
  <path d="M58 156H90L108 120L130 152L152 98L172 132H198" stroke="white" stroke-width="16" stroke-linecap="round" stroke-linejoin="round"/>
  <circle cx="178" cy="88" r="24" fill="#F8FAFC"/>
  <path d="M178 72V104" stroke="#0F172A" stroke-width="10" stroke-linecap="round"/>
  <path d="M166 80C169.333 75.3333 174.533 73 181.6 73C189.267 73 193.833 76.5 195.3 83.5C196.633 89.8333 191.733 94.8 180.6 98.4C172.2 101.067 167.333 103.6 166 106" stroke="#0F172A" stroke-width="8" stroke-linecap="round"/>
  <defs>
    <linearGradient id="bg" x1="24" y1="12" x2="232" y2="244" gradientUnits="userSpaceOnUse">
      <stop stop-color="#0EA5E9"/>
      <stop offset="0.55" stop-color="#2563EB"/>
      <stop offset="1" stop-color="#0F172A"/>
    </linearGradient>
    <linearGradient id="panel" x1="42" y1="30" x2="206" y2="226" gradientUnits="userSpaceOnUse">
      <stop stop-color="#67E8F9" stop-opacity="0.38"/>
      <stop offset="1" stop-color="#0F172A" stop-opacity="0.18"/>
    </linearGradient>
    <linearGradient id="stroke" x1="42" y1="30" x2="212" y2="228" gradientUnits="userSpaceOnUse">
      <stop stop-color="white" stop-opacity="0.72"/>
      <stop offset="1" stop-color="white" stop-opacity="0.12"/>
    </linearGradient>
  </defs>
</svg>